<svg xmlns="http://www.w3.org/2000/svg" xmlns:xlink="http://www.w3.org/1999/xlink" width="70.35" height="70.35" viewBox="0 0 70.35 70.35">
  <defs>
    <linearGradient id="linear-gradient" x1="0.824" y1="0.126" x2="0.257" y2="0.904" gradientUnits="objectBoundingBox">
      <stop offset="0" stop-color="#19bfb6"/>
      <stop offset="1" stop-color="#19bfb6" stop-opacity="0"/>
    </linearGradient>
    <linearGradient id="linear-gradient-2" x1="1.023" y1="0.142" x2="0.122" y2="0.548" gradientUnits="objectBoundingBox">
      <stop offset="0" stop-color="#fff"/>
      <stop offset="1" stop-color="#30d2d9"/>
    </linearGradient>
    <linearGradient id="linear-gradient-3" x1="0.359" y1="-0.022" x2="0.63" y2="0.847" gradientUnits="objectBoundingBox">
      <stop offset="0" stop-color="#0d323d"/>
      <stop offset="1" stop-color="#009bb1"/>
    </linearGradient>
    <linearGradient id="linear-gradient-4" x1="-12.647" y1="-108.534" x2="1.53" y2="9.041" xlink:href="#linear-gradient-3"/>
    <linearGradient id="linear-gradient-6" x1="1.033" y1="0.332" x2="0.027" y2="1.026" gradientUnits="objectBoundingBox">
      <stop offset="0" stop-color="#0d323d" stop-opacity="0"/>
      <stop offset="1" stop-color="#19bfb6"/>
    </linearGradient>
    <linearGradient id="linear-gradient-7" x1="0.878" y1="-0.128" x2="0.004" y2="0.878" gradientUnits="objectBoundingBox">
      <stop offset="0" stop-color="#179289" stop-opacity="0"/>
      <stop offset="1" stop-color="#179289"/>
    </linearGradient>
    <linearGradient id="linear-gradient-8" x1="1.072" y1="-0.508" x2="-0.418" y2="2.595" xlink:href="#linear-gradient-6"/>
  </defs>
  <g id="Group_41" data-name="Group 41" transform="translate(-47.868 -48.473)">
    <g id="Group_1" data-name="Group 1" transform="translate(47.868 50.522)">
      <path id="Path_1" data-name="Path 1" d="M47.868,143.079a22.731,22.731,0,0,1,6.04-15.461,22.292,22.292,0,0,1,1.863-1.807,22.758,22.758,0,0,1,14.914-5.549H83.2c.053,0,.106,0,.159,0A24.051,24.051,0,0,0,93.439,118c.312-.139.617-.292.918-.448a24.245,24.245,0,0,0,13.088-21.531c0-.159,0-.315-.007-.474a23.614,23.614,0,0,0-.259-3.119,23.982,23.982,0,0,0-1.757-6.113q-.234-.532-.5-1.054c-.066-.143-.136-.282-.212-.418-.172-.341-.358-.676-.55-1.008a24.36,24.36,0,0,0-9.275-9.056.3.3,0,0,1,.05.017c.206.073.414.149.617.229s.4.152.6.232c.076.03.149.063.225.093l.5.209q.651.278,1.293.587c.216.1.428.2.64.312.162.08.325.162.484.249.113.056.225.113.335.176.192.1.384.209.577.315.156.086.315.176.471.269q.726.423,1.432.879c.169.106.335.215.5.328l.222.149c.169.113.335.229.5.348s.335.239.5.361c.123.086.245.176.365.268.375.282.743.574,1.1.869.126.1.249.2.368.3s.259.215.385.328a.117.117,0,0,1,.03.023c.176.152.351.308.524.467q.935.84,1.81,1.75c.126.129.252.265.375.4.043.043.083.086.123.133.126.136.255.278.378.418.215.239.424.481.633.726.113.133.225.269.335.4q.447.542.869,1.1c.1.126.189.252.282.378s.192.262.285.391l.073.1c.116.162.225.322.335.484.07.1.136.2.2.3.017.023.033.043.046.066q.2.308.4.617c.09.133.172.268.255.4.123.2.242.395.358.593a1.12,1.12,0,0,1,.07.119c.109.186.219.371.321.56l.209.378q.487.89.915,1.81c.113.229.219.461.321.693.03.073.063.146.093.219.106.239.209.477.3.719.013.03.027.063.04.093.113.275.219.55.325.829.01.023.017.046.027.07.053.139.106.278.152.421.083.232.166.467.245.7s.156.471.232.709c.06.189.116.378.172.567.1.322.186.643.272.968.043.162.086.325.123.491.053.206.1.411.149.62.063.262.119.527.172.792.06.285.116.573.166.862.036.205.073.411.1.62.066.4.126.809.176,1.217.033.262.063.527.089.792.026.242.046.487.066.733.01.1.017.192.023.292.017.232.033.467.043.7a.758.758,0,0,1,0,.086c.01.176.017.351.023.527.007.156.01.315.013.474.007.259.01.52.01.782s0,.54-.01.809c0,.109,0,.222-.01.331-.007.212-.013.424-.026.636v.06c-.017.278-.033.56-.053.835,0,.017,0,.036-.007.053-.02.292-.046.583-.076.872-.027.259-.056.517-.086.772q-.05.408-.109.806c-.02.126-.036.252-.06.375-.026.179-.056.358-.089.534q-.085.507-.189,1c-.053.269-.113.537-.172.8s-.123.517-.189.772c-.03.123-.06.249-.1.371-.04.156-.08.308-.126.464-.02.08-.043.159-.066.235q-.07.249-.149.5c-.036.129-.073.255-.116.385-.152.491-.318.975-.494,1.452-.08.215-.159.431-.242.643-.05.133-.1.265-.156.394-.143.351-.288.7-.441,1.044-.053.126-.109.252-.166.375-.023.05-.043.1-.066.146-.089.2-.182.388-.275.58-.106.225-.215.444-.328.666-.156.3-.315.61-.477.908-.089.166-.182.331-.278.494-.209.375-.428.746-.656,1.111-.106.176-.215.348-.325.52s-.212.328-.322.491-.2.3-.3.451q-.6.87-1.243,1.7-.209.269-.428.537c-.106.133-.212.265-.325.394-.136.166-.278.331-.421.5-.169.2-.345.395-.524.59s-.355.391-.537.58c-.136.143-.269.282-.408.421q-.055.06-.109.109-.149.159-.3.3c-.093.1-.186.186-.279.275-.119.116-.239.229-.358.342q-.781.736-1.6,1.422c-.156.129-.315.259-.474.385s-.312.252-.471.371c-.056.046-.113.09-.169.133-.149.113-.3.225-.448.335-.371.275-.749.547-1.134.809l-.328.219c-.152.1-.3.2-.461.3l-.076.05c-.172.109-.348.219-.524.325q-1.228.761-2.523,1.412c-.192.1-.388.2-.583.288-.159.08-.318.156-.481.229-.143.07-.285.133-.431.2-.534.239-1.077.467-1.628.68-.186.073-.368.143-.557.209-.073.03-.146.056-.219.083-.229.083-.461.166-.693.242-.272.093-.547.182-.822.268-.017.007-.033.01-.053.017-.255.08-.517.156-.776.229-.222.063-.444.126-.666.182l-.388.1c-.206.053-.414.1-.623.149-.007,0-.013,0-.02.007q-.408.094-.825.179a.143.143,0,0,1-.036.007c-.252.053-.507.1-.762.146-.153.03-.3.056-.454.08-.4.07-.806.129-1.213.182-.176.023-.348.046-.524.063-.206.027-.414.05-.62.07-.252.027-.5.046-.756.066a.7.7,0,0,1-.086.007c-.278.023-.564.04-.845.053-.235.013-.474.023-.709.03-.109,0-.219.007-.328.007-.255.007-.514.01-.772.01Z" transform="translate(-47.868 -74.777)" fill="#0d323d"/>
    </g>
    <path id="Path_2" data-name="Path 2" d="M118.215,83.413c0-.149,0-.3,0-.444,0-.053,0-.1,0-.156l-.01-.348c0-.023,0-.043,0-.066,0-.073-.007-.149-.01-.222,0-.119-.007-.235-.013-.355,0-.056-.007-.113-.013-.169,0-.033,0-.07,0-.1s0-.073-.007-.106c-.007-.139-.017-.275-.026-.411a.056.056,0,0,0,0-.023.282.282,0,0,0,0-.053c-.007-.076-.013-.149-.02-.225-.01-.126-.02-.255-.033-.381-.007-.073-.013-.149-.02-.222s-.01-.123-.02-.182v-.023l-.01-.09c-.013-.116-.023-.232-.04-.348,0-.036-.01-.076-.013-.116l-.02-.159c0-.036-.01-.073-.013-.109-.03-.212-.056-.428-.089-.64-.017-.106-.033-.209-.046-.315a.02.02,0,0,1,0-.013c-.04-.259-.083-.517-.133-.772-.01-.06-.02-.116-.033-.172l-.01-.05c-.017-.119-.04-.239-.066-.358,0-.01,0-.017-.007-.027s-.01-.05-.013-.073c-.01-.053-.02-.1-.03-.152l-.03-.129c-.007-.03-.01-.056-.017-.086q-.03-.159-.07-.318c0-.02-.01-.036-.013-.056-.017-.076-.033-.156-.05-.232-.01-.04-.017-.08-.027-.116-.023-.1-.046-.2-.073-.292,0-.02-.01-.036-.013-.056-.017-.083-.036-.162-.056-.242s-.033-.133-.053-.2c-.03-.119-.063-.242-.1-.361s-.066-.242-.1-.365c-.007-.02-.01-.037-.017-.056-.063-.222-.129-.441-.2-.66a.292.292,0,0,0-.02-.066c-.033-.113-.066-.222-.106-.335a.931.931,0,0,0-.043-.136c-.033-.106-.066-.212-.1-.318-.056-.172-.116-.341-.176-.511-.03-.086-.06-.172-.093-.259a.385.385,0,0,0-.023-.066c-.026-.083-.056-.162-.086-.239s-.06-.162-.093-.242c-.043-.119-.089-.239-.136-.355-.023-.063-.046-.123-.073-.186s-.046-.119-.073-.179c-.05-.126-.1-.252-.152-.375-.023-.056-.046-.113-.07-.166a.8.8,0,0,1-.033-.08c-.017-.036-.03-.073-.046-.106-.056-.129-.113-.255-.169-.385l-.01-.03c-.066-.143-.129-.288-.2-.431,0,0,0-.007-.007-.013-.073-.159-.146-.315-.222-.471a.017.017,0,0,0-.007-.013q-.089-.194-.189-.388l-.139-.278c-.043-.083-.083-.166-.129-.249-.083-.166-.169-.331-.259-.494-.06-.109-.116-.215-.179-.322a.9.9,0,0,0-.053-.1c-.136-.252-.278-.5-.424-.746-.056-.1-.113-.189-.169-.285-.1-.159-.2-.322-.3-.477-.037-.063-.076-.129-.119-.192s-.073-.119-.113-.176c0,0,0-.007,0-.007-.126-.2-.255-.4-.388-.593-.036-.053-.073-.109-.109-.162A35.217,35.217,0,0,0,83.043,48.473c-.259,0-.517,0-.772.01-.109,0-.219,0-.328.007-.235.007-.474.017-.709.03-.282.013-.567.03-.845.053a.708.708,0,0,0-.086.007c-.255.02-.5.04-.756.066-.206.02-.414.043-.62.07-.176.017-.348.04-.524.063-.408.053-.812.113-1.213.182-.152.023-.3.05-.454.08-.255.043-.511.093-.762.146a.139.139,0,0,0-.036.007q-.418.084-.825.179c-.007,0-.013,0-.02.007-.209.046-.418.1-.623.149l-.388.1c-.222.056-.444.119-.666.182-.259.073-.52.149-.776.229-.02.007-.036.01-.053.017-.275.086-.55.176-.822.269-.232.076-.464.159-.693.242-.073.026-.146.053-.219.083-.189.066-.371.136-.557.209-.55.212-1.094.441-1.628.68-.146.066-.288.129-.431.2-.162.073-.321.149-.481.229-.2.093-.391.189-.583.288q-1.293.651-2.523,1.412c-.176.106-.351.215-.524.325l-.076.05c-.156.1-.308.2-.461.3l-.328.219c-.385.262-.762.534-1.134.809-.149.109-.3.222-.448.335-.056.043-.113.086-.169.133-.159.119-.315.245-.471.371s-.318.255-.474.384q-.825.686-1.6,1.422c-.119.113-.239.225-.358.341-.093.089-.186.179-.279.275s-.2.192-.3.3q-.055.05-.109.109c-.139.139-.272.278-.408.421-.182.189-.361.385-.537.58s-.355.391-.524.59c-.143.166-.285.332-.421.5-.113.129-.219.262-.325.394q-.219.268-.428.537-.646.83-1.243,1.7c-.1.149-.206.3-.3.451s-.215.325-.322.491-.219.345-.325.52c-.229.365-.448.736-.656,1.111-.1.162-.189.328-.278.494-.162.3-.322.6-.477.908-.113.222-.222.441-.328.666-.093.192-.186.385-.275.58-.023.05-.043.1-.066.146-.056.123-.113.249-.166.375-.153.345-.3.693-.441,1.044-.053.129-.106.262-.156.394-.083.212-.162.428-.242.643-.176.477-.341.961-.494,1.452-.043.129-.08.255-.116.385q-.08.249-.149.5c-.023.076-.046.156-.066.235-.046.156-.086.308-.126.464-.036.123-.066.249-.1.371-.066.255-.129.514-.189.772s-.119.534-.172.8q-.1.5-.189,1c-.033.176-.063.355-.089.534-.023.123-.04.249-.06.375q-.06.4-.109.806c-.03.255-.06.514-.086.772-.03.288-.056.58-.076.872,0,.017,0,.036-.007.053-.02.275-.036.557-.053.835v.06c-.013.212-.02.424-.026.636-.007.109-.01.222-.01.331-.007.269-.01.54-.01.809s0,.524.01.782c0,.159.007.318.013.474.007.176.013.351.023.527a.76.76,0,0,0,0,.086c.01.235.027.471.043.7.007.1.013.2.023.292.02.245.04.491.066.733.027.265.056.53.089.792.05.408.109.815.176,1.217.03.209.066.414.1.62.05.288.106.577.166.862.053.265.109.53.172.792.046.209.1.414.149.62.036.166.08.328.123.491.086.325.176.646.272.968.056.189.113.378.172.567.076.239.152.474.232.709s.162.471.245.7c.046.143.1.282.152.421.01.023.017.046.027.07.106.278.212.554.325.829.013.03.027.063.04.093.1.242.2.481.3.719.03.073.063.146.093.219.1.232.209.464.321.693q.428.92.915,1.81l.209.378c.1.189.212.375.321.56a1.126,1.126,0,0,0,.07.119c.116.2.235.4.358.593.083.136.166.272.255.4q.194.308.4.617c.013.023.03.043.046.066.066.1.133.2.2.3.109.162.219.322.335.484l.073.1c.093.129.189.262.285.391s.186.252.282.378c.282.375.57.743.869,1.1.109.136.222.272.335.4.209.245.418.487.633.726.123.139.252.282.378.418.04.046.08.089.123.133.123.133.249.268.375.4q.875.91,1.81,1.75c.172.159.348.315.524.467a.117.117,0,0,0,.03.023c.126.113.255.222.385.328s.242.206.368.3c.361.3.729.587,1.1.868.119.093.242.182.365.269.162.123.331.242.5.361s.331.235.5.348l.222.149c.166.113.331.222.5.328q.706.457,1.432.878c.156.093.315.182.471.269.192.106.385.212.577.315.109.063.222.119.335.176.159.086.322.169.484.249.212.109.424.212.64.312q.641.308,1.293.587l.5.209c.076.03.149.063.225.093.2.08.4.156.6.232s.411.156.617.229a.3.3,0,0,0,.05.017,0,0,0,0,0,0,0c.322.116.646.225.971.328.149.053.3.1.451.149l.106.03c.083.027.169.05.252.076.109.033.219.066.332.1q.268.08.537.149c.073.023.146.043.222.06s.179.046.269.07.179.043.268.066c.007,0,.013,0,.02.007.086.023.172.043.259.063.119.03.239.056.361.083.179.043.361.083.54.116.027.007.053.01.08.017a.9.9,0,0,0,.136.03c.2.043.4.08.6.116l.056.01c.129.026.265.05.4.07s.3.053.448.076l.189.03c.056.01.116.017.172.026.172.026.348.05.524.073.017,0,.037,0,.053.007.206.027.411.053.62.073.066.01.133.017.2.023.126.017.252.026.378.036.182.02.368.036.554.05.109.013.222.02.335.026.162.013.328.023.494.03.1.01.2.013.3.017.143.01.285.013.428.017.086,0,.172.01.259.01s.172.007.259.007q.388.01.776.01c.259,0,.514,0,.772-.01.169,0,.341-.007.511-.017.2,0,.4-.013.6-.023.258-.013.52-.03.776-.05.02,0,.04,0,.06,0,.3-.023.583-.05.875-.08.262-.026.524-.056.782-.089.159-.02.318-.04.477-.063.04,0,.083-.01.123-.017.1-.013.2-.026.3-.043s.179-.027.268-.043c.037-.007.076-.01.113-.017.189-.03.378-.063.567-.1.288-.05.577-.106.862-.166s.573-.119.855-.186c.259-.06.517-.123.772-.186.04-.013.083-.023.123-.033l.043-.01c.252-.066.5-.133.749-.206.225-.066.454-.133.68-.2.162-.05.328-.1.491-.156a.366.366,0,0,0,.056-.017l.1-.033c.093-.03.189-.06.282-.093.056-.017.113-.037.166-.056.206-.07.408-.139.61-.216l.268-.1c.232-.086.464-.176.693-.265.02-.01.043-.017.063-.026.182-.07.365-.146.544-.222l.166-.07c.259-.109.511-.222.766-.335q1.517-.691,2.954-1.515c.239-.136.477-.275.713-.418.474-.285.938-.583,1.392-.888.109-.076.222-.149.328-.225s.219-.149.325-.225.232-.162.345-.245l.358-.259c.156-.119.312-.235.467-.355.023-.017.043-.033.066-.053.116-.089.232-.179.348-.272.139-.106.275-.219.411-.328.172-.143.345-.285.514-.431.259-.215.514-.438.762-.663.01-.01.023-.02.033-.03.123-.109.242-.219.361-.332.093-.083.186-.169.275-.255l.01-.01c.133-.126.265-.252.394-.381.05-.046.093-.089.136-.133l.01-.01c.143-.139.282-.278.418-.421l.01-.01c.053-.05.1-.1.152-.156l0,0,.378-.4c.043-.043.086-.089.129-.136,0,0,.007-.007.01-.013a.089.089,0,0,0,.017-.02c.086-.093.172-.186.255-.278s.182-.2.272-.3c0,0,.007,0,.007-.007s.017-.017.023-.027c.129-.146.255-.292.385-.441.023-.03.05-.056.073-.086s.056-.066.083-.1c.083-.1.169-.2.249-.3s.166-.2.245-.3c.172-.215.342-.431.507-.65s.335-.438.494-.66c.143-.192.282-.388.421-.587.04-.056.08-.116.123-.172.027-.04.053-.076.076-.116.086-.126.172-.255.259-.381.017-.023.03-.046.046-.07s.03-.05.046-.073c.133-.2.262-.4.388-.6.02-.03.036-.06.056-.089l.013-.023c.136-.212.265-.424.391-.64.139-.235.278-.474.414-.716s.269-.481.4-.726c.08-.149.156-.3.235-.448s.152-.3.225-.451c.152-.3.3-.607.438-.912.073-.152.143-.308.209-.461s.136-.312.2-.467c.033-.073.063-.146.1-.219a.547.547,0,0,1,.027-.066c.05-.119.1-.239.146-.361a.542.542,0,0,0,.027-.066c.06-.146.116-.3.172-.441q.134-.343.259-.686t.229-.656c.086-.252.169-.5.249-.759.01-.03.02-.063.03-.1.08-.259.159-.517.232-.779.053-.189.1-.375.152-.564q.05-.169.089-.338c.043-.172.086-.345.126-.517.033-.133.063-.265.093-.4a.923.923,0,0,0,.023-.1c.05-.206.093-.414.136-.623a.064.064,0,0,0,0-.023c.007-.033.013-.07.02-.1.05-.222.09-.444.129-.67a.534.534,0,0,0,.013-.07c.007-.03.01-.063.017-.093.04-.209.073-.421.106-.633.007-.043.013-.083.02-.126.017-.1.03-.192.043-.288l.01-.07c.033-.229.063-.454.093-.683s.056-.471.08-.706a.806.806,0,0,0,.007-.089q.035-.323.06-.646c0-.046.007-.089.01-.136.007-.073.013-.149.017-.222v-.007c.02-.242.033-.484.046-.729.01-.212.02-.424.026-.64v-.04c.007-.149.01-.292.013-.441v-.056c0-.212.007-.421.007-.633C118.218,83.569,118.218,83.492,118.215,83.413ZM95.4,83.648A12.358,12.358,0,0,1,83.043,96.006a12.171,12.171,0,0,1-2.1-.179c-.08-.013-.159-.027-.239-.043-.1-.017-.2-.036-.288-.056l-.265-.06q-.4-.1-.786-.219c-.1-.03-.192-.06-.288-.093A12.424,12.424,0,0,1,76.46,94.11c-.063-.04-.123-.08-.182-.119-.133-.086-.262-.172-.388-.265-.08-.053-.156-.109-.232-.169a12.037,12.037,0,0,1-1.21-1.031c-.05-.046-.1-.093-.143-.139a12.388,12.388,0,0,1-1.555-1.9c-.036-.05-.07-.1-.1-.156-.017-.026-.033-.05-.05-.076-.043-.066-.083-.133-.123-.2s-.066-.109-.1-.166a12.306,12.306,0,0,1-1.19-2.748c-.05-.166-.093-.335-.136-.507-.023-.093-.046-.186-.066-.278s-.043-.206-.066-.312c-.017-.083-.03-.169-.046-.255-.046-.265-.083-.534-.113-.806,0-.02,0-.04-.007-.06a12.468,12.468,0,0,1-.066-1.276,12.358,12.358,0,0,1,12.04-12.355c.053,0,.106,0,.159,0H95.4Z" transform="translate(0 0)" fill="#019db3"/>
    <g id="Group_2" data-name="Group 2" transform="translate(47.868 48.473)">
      <path id="Path_3" data-name="Path 3" d="M118.218,48.473a22.731,22.731,0,0,1-6.04,15.461,22.292,22.292,0,0,1-1.863,1.807A22.758,22.758,0,0,1,95.4,71.29H82.884c-.053,0-.106,0-.159,0a24.051,24.051,0,0,0-10.078,2.261c-.312.139-.617.292-.918.448A24.245,24.245,0,0,0,58.642,95.532c0,.159,0,.315.007.474a23.614,23.614,0,0,0,.259,3.119,23.982,23.982,0,0,0,1.757,6.113q.234.532.5,1.054c.066.143.136.282.212.418.172.341.358.676.55,1.008a24.36,24.36,0,0,0,9.275,9.057.3.3,0,0,1-.05-.017c-.206-.073-.414-.149-.617-.229s-.4-.152-.6-.232c-.076-.03-.149-.063-.225-.093l-.5-.209q-.651-.279-1.293-.587c-.215-.1-.428-.2-.64-.312-.162-.08-.325-.162-.484-.249-.113-.056-.225-.113-.335-.176-.192-.1-.385-.209-.577-.315-.156-.086-.315-.176-.471-.269q-.726-.423-1.432-.878c-.169-.106-.335-.216-.5-.328l-.222-.149c-.169-.113-.335-.229-.5-.348s-.335-.239-.5-.361c-.123-.086-.245-.176-.365-.269-.375-.282-.743-.573-1.1-.868-.126-.1-.249-.2-.368-.3s-.259-.215-.385-.328a.117.117,0,0,1-.03-.023c-.176-.152-.351-.308-.524-.467q-.935-.84-1.81-1.75c-.126-.129-.252-.265-.375-.4-.043-.043-.083-.086-.123-.133-.126-.136-.255-.278-.378-.418-.215-.239-.424-.481-.633-.726-.113-.133-.225-.269-.335-.4-.3-.361-.587-.729-.869-1.1-.1-.126-.189-.252-.282-.378s-.192-.262-.285-.391l-.073-.1c-.116-.162-.225-.321-.335-.484-.07-.1-.136-.2-.2-.3-.017-.023-.033-.043-.046-.066q-.2-.308-.4-.617c-.09-.133-.172-.269-.255-.4-.123-.2-.242-.394-.358-.593a1.125,1.125,0,0,1-.07-.119c-.109-.186-.219-.371-.321-.56l-.209-.378q-.487-.89-.915-1.81c-.113-.229-.219-.461-.321-.693-.03-.073-.063-.146-.093-.219-.106-.239-.209-.477-.3-.719-.013-.03-.027-.063-.04-.093-.113-.275-.219-.55-.325-.829-.01-.023-.017-.046-.027-.07-.053-.139-.106-.278-.152-.421-.083-.232-.166-.467-.245-.7s-.156-.471-.232-.709c-.06-.189-.116-.378-.172-.567-.1-.322-.186-.643-.272-.968-.043-.162-.086-.325-.123-.491-.053-.206-.1-.411-.149-.62-.063-.262-.119-.527-.172-.792-.06-.285-.116-.574-.166-.862-.036-.206-.073-.411-.1-.62-.066-.4-.126-.809-.176-1.217-.033-.262-.063-.527-.089-.792-.026-.242-.046-.487-.066-.733-.01-.1-.017-.192-.023-.292-.017-.232-.033-.467-.043-.7a.76.76,0,0,1,0-.086c-.01-.176-.017-.351-.023-.527-.007-.156-.01-.315-.013-.474-.007-.259-.01-.52-.01-.782s0-.54.01-.809c0-.109,0-.222.01-.331.007-.212.013-.424.026-.636v-.06c.017-.278.033-.56.053-.835,0-.017,0-.036.007-.053.02-.292.046-.583.076-.872.027-.259.056-.517.086-.772q.05-.408.109-.806c.02-.126.036-.252.06-.375.026-.179.056-.358.089-.534q.084-.507.189-1c.053-.269.113-.537.172-.8s.123-.517.189-.772c.03-.123.06-.249.1-.371.04-.156.08-.308.126-.464.02-.08.043-.159.066-.235q.07-.249.149-.5c.036-.129.073-.255.116-.385.152-.491.318-.975.494-1.452.08-.215.159-.431.242-.643.05-.133.1-.265.156-.394.143-.351.288-.7.441-1.044.053-.126.109-.252.166-.375.023-.05.043-.1.066-.146.089-.2.182-.388.275-.58.106-.225.215-.444.328-.666.156-.3.315-.61.477-.908.089-.166.182-.332.278-.494.209-.375.428-.746.656-1.111.106-.176.215-.348.325-.52s.212-.328.322-.491.2-.3.3-.451q.6-.87,1.243-1.7.209-.268.428-.537c.106-.133.212-.265.325-.394.136-.166.279-.332.421-.5.169-.2.345-.394.524-.59s.355-.391.537-.58c.136-.143.269-.282.408-.421q.055-.06.109-.109.149-.159.3-.3c.093-.1.186-.186.279-.275.119-.116.239-.229.358-.341q.781-.736,1.6-1.422c.156-.129.315-.259.474-.384s.312-.252.471-.371c.056-.046.113-.089.169-.133.149-.113.3-.225.448-.335.371-.275.749-.547,1.134-.809l.328-.219c.152-.1.3-.2.461-.3l.076-.05c.172-.109.348-.219.524-.325q1.228-.761,2.523-1.412c.192-.1.388-.2.583-.288.159-.08.318-.156.481-.229.143-.07.285-.133.431-.2.534-.239,1.077-.467,1.628-.68.186-.073.368-.143.557-.209.073-.03.146-.056.219-.083.229-.083.461-.166.693-.242.272-.093.547-.182.822-.269.017-.007.033-.01.053-.017.255-.08.517-.156.776-.229.222-.063.444-.126.666-.182l.388-.1c.206-.053.414-.1.623-.149.007,0,.013,0,.02-.007q.408-.094.825-.179a.139.139,0,0,1,.036-.007c.252-.053.507-.1.762-.146.152-.03.3-.056.454-.08.4-.07.806-.129,1.213-.182.176-.023.348-.046.524-.063.206-.027.414-.05.62-.07.252-.027.5-.046.756-.066a.709.709,0,0,1,.086-.007c.278-.023.564-.04.845-.053.235-.013.474-.023.709-.03.109,0,.219-.007.328-.007.255-.007.514-.01.772-.01Z" transform="translate(-47.868 -48.473)" fill="#30d2d9"/>
    </g>
    <g id="Group_3" data-name="Group 3" transform="translate(58.642 63.934)">
      <path id="Path_4" data-name="Path 4" d="M245.779,266.706c0,.212,0,.421-.007.633v.056c0,.149-.007.292-.013.441v.04c-.007.216-.017.428-.026.64-.013.245-.026.487-.046.729v.007c0,.073-.01.149-.017.222,0,.046-.007.089-.01.136q-.025.323-.06.646a.8.8,0,0,1-.007.09c-.023.235-.053.474-.08.706s-.06.454-.093.683l-.01.07c-.013.1-.026.192-.043.288-.007.043-.013.083-.02.126-.033.212-.066.424-.106.633-.007.03-.01.063-.017.093a.531.531,0,0,1-.013.07c-.04.225-.08.448-.129.67-.007.033-.013.07-.02.1a.064.064,0,0,1,0,.023c-.043.209-.086.418-.136.623a.92.92,0,0,1-.023.1c-.03.133-.06.265-.093.4-.04.172-.083.345-.126.517q-.04.169-.089.338c-.05.189-.1.375-.152.564-.073.262-.152.52-.232.779-.01.033-.02.066-.03.1-.08.255-.162.507-.249.759q-.109.328-.229.656t-.259.686c-.056.146-.113.295-.172.441a.545.545,0,0,1-.027.066c-.046.123-.1.242-.146.361a.544.544,0,0,0-.027.066c-.033.073-.063.146-.1.219-.066.156-.133.312-.2.467s-.136.308-.209.461c-.139.3-.285.61-.438.912-.073.152-.149.3-.225.451s-.156.3-.235.448q-.194.368-.4.726c-.136.242-.275.481-.414.716-.129.219-.259.428-.391.64l-.013.023c-.02.03-.037.06-.056.089-.126.2-.255.4-.388.6-.017.023-.03.046-.046.073s-.03.046-.046.07c-.086.126-.172.255-.259.381-.023.04-.05.076-.076.116-.043.056-.083.116-.123.172-.139.2-.279.394-.421.587-.162.222-.325.444-.494.66s-.335.434-.507.65c-.08.1-.162.2-.245.3s-.166.2-.249.3c-.026.033-.053.066-.083.1s-.05.056-.073.086c-.129.149-.255.3-.385.441-.007.01-.017.017-.023.027s-.007.007-.007.007c-.089.1-.179.2-.272.3s-.169.186-.255.278a.09.09,0,0,1-.017.02c0,.007-.01.01-.01.013-.043.046-.086.093-.129.136l-.378.4,0,0c-.05.053-.1.106-.152.156l-.01.01c-.136.143-.275.282-.418.421l-.01.01c-.043.043-.086.086-.136.133-.129.129-.262.255-.394.381l-.01.01c-.09.086-.182.172-.275.255-.119.113-.239.222-.361.332-.01.01-.023.02-.033.03-.249.225-.5.448-.762.663-.169.146-.341.288-.514.431-.136.109-.272.222-.411.328-.116.093-.232.182-.348.272-.023.02-.043.036-.066.053-.156.119-.312.235-.467.355l-.358.259c-.113.083-.229.166-.345.245s-.215.152-.325.225-.219.149-.328.225c-.454.3-.918.6-1.392.888-.235.143-.474.282-.713.418q-1.437.825-2.954,1.515c-.255.113-.507.225-.766.335l-.166.07c-.179.076-.361.152-.544.222-.02.01-.043.017-.063.026-.229.09-.461.179-.693.265l-.268.1c-.2.076-.4.146-.61.216-.053.02-.109.04-.166.056-.093.033-.189.063-.282.093l-.1.033a.367.367,0,0,1-.056.017c-.162.056-.328.106-.491.156-.225.07-.454.136-.68.2-.249.073-.5.139-.749.206l-.043.01c-.04.01-.083.02-.123.033-.255.063-.514.126-.772.186-.282.066-.567.129-.855.186s-.574.116-.862.166c-.189.033-.378.066-.567.1-.037.007-.076.01-.113.017-.089.017-.179.03-.268.043s-.2.03-.3.043c-.04.007-.083.013-.123.017-.159.023-.318.043-.477.063-.259.033-.52.063-.782.089-.292.03-.58.056-.875.08-.02,0-.04,0-.06,0-.255.02-.517.036-.776.05-.2.01-.4.02-.6.023-.169.01-.341.013-.51.017-.259.007-.514.01-.772.01s-.517,0-.776-.01c-.086,0-.172,0-.259-.007s-.172-.007-.259-.01c-.143,0-.285-.007-.428-.017-.1,0-.2-.007-.3-.017-.166-.007-.331-.017-.494-.03-.113-.007-.225-.013-.335-.026-.186-.013-.371-.03-.554-.05-.126-.01-.252-.02-.378-.036-.066-.007-.133-.013-.2-.023-.209-.02-.414-.046-.62-.073-.017,0-.037,0-.053-.007-.176-.023-.351-.046-.524-.073-.056-.01-.116-.017-.172-.026l-.189-.03c-.149-.023-.3-.05-.448-.076s-.272-.043-.4-.07l-.056-.01c-.2-.036-.4-.073-.6-.116a.9.9,0,0,1-.136-.03c-.027-.007-.053-.01-.08-.017-.179-.033-.361-.073-.54-.116-.123-.026-.242-.053-.361-.083-.086-.02-.172-.04-.259-.063-.007,0-.013,0-.02-.007-.089-.023-.179-.043-.268-.066s-.179-.043-.269-.07-.149-.036-.222-.06q-.269-.07-.537-.149c-.113-.03-.222-.063-.332-.1-.272-.08-.54-.166-.809-.255-.325-.1-.65-.212-.971-.328a0,0,0,0,1,0,0,24.36,24.36,0,0,1-9.275-9.057c-.192-.331-.378-.666-.55-1.008-.076-.136-.146-.275-.212-.418q-.263-.522-.5-1.054a23.981,23.981,0,0,1-1.757-6.113,23.613,23.613,0,0,1-.259-3.119c-.007-.159-.007-.315-.007-.474a24.245,24.245,0,0,1,13.087-21.531c.3-.156.607-.308.918-.448a24.051,24.051,0,0,1,10.078-2.261,12.358,12.358,0,0,0-12.04,12.355,12.469,12.469,0,0,0,.066,1.276c0,.02,0,.04.007.06.03.272.066.54.113.806.017.086.03.172.046.255.023.106.043.209.066.312s.043.186.066.278c.04.172.086.341.136.507a12.306,12.306,0,0,0,1.19,2.748c.033.056.066.113.1.166s.08.133.123.2c.017.027.033.05.05.076v0c.033.05.066.1.1.152a12.388,12.388,0,0,0,1.555,1.9c.046.046.093.093.143.139a12.036,12.036,0,0,0,1.21,1.031c.076.06.156.116.232.169.126.093.255.179.388.265.06.04.119.08.182.119a12.425,12.425,0,0,0,2.619,1.247c.1.033.192.063.288.093q.388.119.786.219l.265.06c.093.02.189.04.288.056.079.017.159.03.239.043a12.169,12.169,0,0,0,2.1.179,12.358,12.358,0,0,0,12.358-12.358V254.348a22.758,22.758,0,0,0,14.914-5.549,22.294,22.294,0,0,0,1.863-1.807c.036.053.073.109.109.162.133.2.262.394.388.593,0,0,0,0,0,.007.04.056.076.116.113.176s.083.129.119.192c.1.156.2.318.3.477.056.1.113.189.169.285.143.245.285.494.424.746a.906.906,0,0,1,.053.1q.224.4.438.816c.046.083.086.166.129.249l.139.278q.1.194.189.388a.017.017,0,0,1,.007.013c.076.156.149.312.222.471,0,.007.007.01.007.013.037.073.07.143.1.215s.073.162.109.245c.056.129.113.255.169.384.017.033.03.07.046.106s.023.053.033.08c.023.053.046.109.07.166.04.093.076.182.116.275.01.033.023.066.036.1.026.06.05.119.073.179s.05.123.073.186c.046.116.093.235.136.355.033.08.063.159.093.242s.06.156.086.239a.386.386,0,0,1,.023.066c.033.083.063.172.093.259.06.169.119.338.176.511.036.1.07.209.1.318a.93.93,0,0,1,.043.136c.036.113.073.222.106.335a.291.291,0,0,1,.02.066c.066.219.133.438.2.66a.5.5,0,0,1,.017.056c.033.123.07.242.1.365s.066.242.1.361c.04.146.076.292.109.441,0,.02.01.036.013.056.023.086.043.176.066.262,0,.01,0,.02.007.03.01.037.017.076.027.116.017.076.033.156.05.232,0,.02.01.036.013.056a1.5,1.5,0,0,1,.04.176c.01.046.02.1.03.143.007.03.01.056.017.086l.03.129c.01.05.02.1.03.152,0,.023.01.05.013.073s0,.017.007.027c.013.056.023.113.037.169,0,.007,0,.013,0,.023.01.053.02.109.027.166l.01.05c.013.056.023.113.033.172.05.255.093.514.133.772l.05.328c.033.212.06.428.089.64,0,.036.01.073.013.109l.02.159c0,.04.01.08.013.116l.04.348.01.09V263c.007.063.013.123.02.182.007.076.013.149.02.222.013.126.023.255.033.381.007.076.013.149.02.225,0,.017,0,.036,0,.053a.056.056,0,0,1,0,.023c.01.136.02.272.026.411,0,.033.007.07.007.106s0,.07,0,.1c.007.086.01.172.017.262s.007.172.01.262c0,.073.007.149.01.222,0,.023,0,.043,0,.066,0,.053,0,.109,0,.162s.007.123.007.186,0,.1,0,.156c0,.146,0,.3,0,.444C245.779,266.55,245.779,266.627,245.779,266.706Z" transform="translate(-186.202 -246.992)" fill="#177075"/>
      <path id="Path_5" data-name="Path 5" d="M359.949,929.721c.378.126.756.242,1.14.351C360.7,929.966,360.327,929.85,359.949,929.721Z" transform="translate(-346.417 -876.549)" fill="#009bb1" opacity="0.1"/>
    </g>
    <g id="Group_5" data-name="Group 5" transform="translate(70.758 63.934)">
      <g id="Group_4" data-name="Group 4" transform="translate(0 0)">
        <path id="Path_6" data-name="Path 6" d="M389.231,266.471a23.581,23.581,0,0,1-3.252,11.765A23.742,23.742,0,0,1,365.466,290a23.754,23.754,0,0,1-14.457-4.9,23.922,23.922,0,0,1-5.33-5.7c-.073-.109-.146-.222-.219-.335a23.861,23.861,0,0,1-1.8-3.365,23.491,23.491,0,0,1-1.889-7.658c.03.272.066.54.113.806.017.086.03.172.046.255.023.106.043.209.066.312s.043.186.066.278c.043.172.086.341.136.507a12.306,12.306,0,0,0,1.19,2.748c.033.056.066.113.1.166s.079.133.123.2c.017.027.033.05.05.076v0c.033.05.066.1.1.152a12.387,12.387,0,0,0,1.555,1.9c.046.046.093.093.143.139a12.042,12.042,0,0,0,1.21,1.031c.076.06.156.116.232.169.126.093.255.179.388.265.06.04.119.08.182.119a12.425,12.425,0,0,0,2.619,1.247c.1.033.192.063.288.093q.388.119.786.219l.265.06c.093.02.189.04.288.056.08.017.159.03.239.043a12.169,12.169,0,0,0,2.1.179,12.358,12.358,0,0,0,12.358-12.358V254.348a22.758,22.758,0,0,0,14.914-5.549,22.294,22.294,0,0,0,1.863-1.807c.036.053.073.109.109.162.133.2.262.394.388.593,0,0,0,0,0,.007.04.056.076.116.113.176s.083.129.119.192c.1.156.2.318.3.477.056.1.113.189.169.285.143.245.285.494.424.746a.906.906,0,0,1,.053.1c.063.106.119.212.179.322.09.162.176.328.259.494.046.083.086.166.129.249l.139.278q.1.194.189.388a.017.017,0,0,1,.007.013c.076.156.149.312.222.471,0,.007.007.01.007.013.036.073.07.143.1.215s.066.143.1.215c.06.139.119.275.179.414.017.033.03.07.046.106s.023.053.033.08c.023.053.046.109.07.166.04.093.076.182.116.275l.109.278c.027.063.05.123.073.186.046.116.093.235.136.355.033.08.063.159.093.242s.06.156.086.239a.385.385,0,0,1,.023.066c.033.083.063.172.093.259.06.169.119.338.176.511.036.1.07.209.1.318a.926.926,0,0,1,.043.136c.036.113.073.222.106.335a.293.293,0,0,1,.02.066c.066.219.133.438.2.66a.5.5,0,0,1,.016.056c.033.123.07.242.1.365s.066.242.1.361c.02.066.036.133.053.2.046.186.093.371.136.56,0,.01,0,.02.007.03.01.037.017.076.027.116.036.152.073.308.1.464.01.046.02.1.03.143.017.073.033.143.046.215.01.05.02.1.03.152l.02.1c.013.056.023.113.037.169,0,.007,0,.013,0,.023.023.129.05.259.07.388.05.255.093.514.133.772l.05.328c.033.212.06.428.09.64,0,.036.01.073.013.109l.02.159c0,.04.01.08.013.116l.04.348.01.09V263c.007.063.013.123.02.182.007.076.013.149.02.222.013.126.023.255.033.381.007.076.013.149.02.225,0,.017,0,.036,0,.053a.056.056,0,0,1,0,.023c.01.136.02.272.026.411,0,.033.007.07.007.106.007.089.013.179.017.272a.882.882,0,0,1,0,.093c.007.086.007.172.01.262,0,.073.007.149.01.222,0,.023,0,.043,0,.066,0,.053,0,.109,0,.162s.007.123.007.186,0,.1,0,.156C389.228,266.172,389.231,266.322,389.231,266.471Z" transform="translate(-341.774 -246.992)" fill="#0d323d"/>
      </g>
    </g>
    <g id="Group_6" data-name="Group 6" transform="translate(47.868 48.473)">
      <path id="Path_7" data-name="Path 7" d="M118.218,83.648a35.175,35.175,0,0,1-70.35,0c0-.511.01-1.014.033-1.518A32.211,32.211,0,1,0,81.525,48.506c.5-.023,1.008-.033,1.518-.033A35.176,35.176,0,0,1,118.218,83.648Z" transform="translate(-47.868 -48.473)" opacity="0.1" fill="url(#linear-gradient)"/>
    </g>
    <g id="Group_8" data-name="Group 8" transform="translate(47.868 48.473)" opacity="0.5">
      <g id="Group_7" data-name="Group 7" transform="translate(0 0)">
        <path id="Path_8" data-name="Path 8" d="M118.215,48.473A23.714,23.714,0,0,1,98.209,59.406H82.437A32.641,32.641,0,0,0,49.761,92.081a32.2,32.2,0,0,0,.189,3.5A35.2,35.2,0,0,1,72.585,50.054c.017-.007.033-.01.053-.017a35.316,35.316,0,0,1,10.406-1.565Z" transform="translate(-47.868 -48.473)" fill="url(#linear-gradient-2)"/>
      </g>
    </g>
    <g id="Group_9" data-name="Group 9" transform="translate(58.642 71.293)" opacity="0.25">
      <path id="Path_9" data-name="Path 9" d="M245.779,353.839c0,.212,0,.421-.007.633v.056c0,.149-.007.292-.013.441v.04c-.007.215-.017.428-.026.64-.013.245-.026.487-.046.729v.007c0,.073-.01.149-.017.222,0,.046-.007.089-.01.136q-.025.323-.06.646a.8.8,0,0,1-.007.089c-.023.235-.053.474-.08.706s-.06.454-.093.683l-.01.07c-.013.1-.026.192-.043.288-.007.043-.013.083-.02.126-.033.212-.066.424-.106.633-.007.03-.01.063-.017.093a.53.53,0,0,1-.013.07c-.04.225-.08.448-.129.67-.007.033-.013.07-.02.1a.064.064,0,0,1,0,.023c-.043.209-.086.418-.136.623a.92.92,0,0,1-.023.1c-.03.133-.06.265-.093.4-.04.172-.083.345-.126.517q-.04.169-.089.338c-.05.189-.1.375-.152.564-.073.262-.152.52-.232.779-.01.033-.02.066-.03.1-.08.255-.162.507-.249.759q-.109.328-.229.656-.124.343-.259.686c-.056.146-.113.3-.172.441a.547.547,0,0,1-.027.066c-.046.123-.1.242-.146.361a.546.546,0,0,0-.027.066c-.033.073-.063.146-.1.219-.066.156-.133.312-.2.467s-.136.308-.209.461c-.139.3-.285.61-.438.912-.073.153-.149.3-.225.451s-.156.3-.235.448q-.194.368-.4.726c-.136.242-.275.481-.414.716-.129.219-.259.428-.391.64l-.013.023c-.02.03-.037.06-.056.09-.126.2-.255.4-.388.6-.017.023-.03.046-.046.073s-.03.046-.046.07c-.086.126-.172.255-.259.381-.023.04-.05.076-.076.116-.043.056-.083.116-.123.172-.139.2-.279.394-.421.587-.162.222-.325.444-.494.66s-.335.434-.507.65c-.08.1-.162.2-.245.3s-.166.2-.249.3c-.026.033-.053.066-.083.1s-.05.056-.073.086c-.129.149-.255.3-.385.441-.007.01-.017.017-.023.027s-.007.007-.007.007c-.089.1-.179.2-.272.3s-.169.186-.255.278a.089.089,0,0,1-.017.02c0,.007-.01.01-.01.013-.043.046-.086.093-.129.136l-.378.4,0,0c-.05.053-.1.106-.152.156l-.01.01c-.136.143-.275.282-.418.421l-.01.01c-.043.043-.086.086-.136.133-.129.129-.262.255-.394.381l-.01.01c-.09.086-.182.172-.275.255-.119.113-.239.222-.361.332-.01.01-.023.02-.033.03-.249.225-.5.448-.762.663-.169.146-.341.288-.514.431-.136.109-.272.222-.411.328-.116.093-.232.182-.348.272-.023.02-.043.036-.066.053-.156.119-.312.235-.467.355l-.358.259c-.113.083-.229.166-.345.245s-.215.153-.325.225-.219.149-.328.225c-.454.3-.918.6-1.392.888-.235.143-.474.282-.713.418q-1.437.825-2.954,1.515c-.255.113-.507.225-.766.335l-.166.07c-.179.076-.361.152-.544.222-.02.01-.043.017-.063.026-.229.09-.461.179-.693.265l-.268.1c-.2.076-.4.146-.61.215-.053.02-.109.04-.166.056-.093.033-.189.063-.282.093l-.1.033a.367.367,0,0,1-.056.017c-.162.056-.328.106-.491.156-.225.07-.454.136-.68.2-.249.073-.5.139-.749.206l-.043.01c-.04.01-.083.02-.123.033-.255.063-.514.126-.772.186-.282.066-.567.129-.855.186s-.574.116-.862.166c-.189.033-.378.066-.567.1-.037.007-.076.01-.113.017-.089.017-.179.03-.268.043s-.2.03-.3.043c-.04.007-.083.013-.123.017-.159.023-.318.043-.477.063-.259.033-.52.063-.782.09-.292.03-.58.056-.875.08-.02,0-.04,0-.06,0-.255.02-.517.037-.776.05-.2.01-.4.02-.6.023-.169.01-.341.013-.51.017-.259.007-.514.01-.772.01s-.517,0-.776-.01c-.086,0-.172,0-.259-.007s-.172-.007-.259-.01c-.143,0-.285-.007-.428-.017-.1,0-.2-.007-.3-.017-.166-.007-.331-.017-.494-.03-.113-.007-.225-.013-.335-.026-.186-.013-.371-.03-.554-.05-.126-.01-.252-.02-.378-.036-.066-.007-.133-.013-.2-.023-.209-.02-.414-.046-.62-.073-.017,0-.037,0-.053-.007-.176-.023-.351-.046-.524-.073-.056-.01-.116-.017-.172-.026l-.189-.03c-.149-.023-.3-.05-.448-.076s-.272-.043-.4-.07l-.056-.01c-.2-.036-.4-.073-.6-.116a.9.9,0,0,1-.136-.03c-.027-.007-.053-.01-.08-.017-.179-.033-.361-.073-.54-.116-.123-.026-.242-.053-.361-.083-.086-.02-.172-.04-.259-.063-.007,0-.013,0-.02-.007-.089-.023-.179-.043-.268-.066s-.179-.043-.269-.07-.149-.036-.222-.06q-.269-.07-.537-.149c-.113-.03-.222-.063-.332-.1-.063-.02-.126-.037-.189-.056a.716.716,0,0,0-.08-.023c-.179-.056-.361-.116-.54-.176-.325-.1-.65-.212-.971-.328a0,0,0,0,1,0,0,24.361,24.361,0,0,1-9.275-9.057c-.192-.331-.378-.666-.55-1.008-.076-.136-.146-.275-.212-.418q-.263-.522-.5-1.054a23.982,23.982,0,0,1-1.757-6.113,23.613,23.613,0,0,1-.259-3.119c-.007-.159-.007-.315-.007-.474a24.245,24.245,0,0,1,13.087-21.531c.3-.156.607-.308.918-.448a24.051,24.051,0,0,1,10.078-2.261,12.358,12.358,0,0,0-12.04,12.355,12.469,12.469,0,0,0,.066,1.276c0,.02,0,.04.007.06a23.49,23.49,0,0,0,1.889,7.658A23.861,23.861,0,0,0,202,366.2c.073.113.146.225.219.335a23.924,23.924,0,0,0,5.33,5.7A23.764,23.764,0,0,0,245.775,353.6C245.779,353.683,245.779,353.759,245.779,353.839Z" transform="translate(-186.202 -341.484)" fill="url(#linear-gradient-3)"/>
      <path id="Path_10" data-name="Path 10" d="M359.949,929.721c.378.126.756.242,1.14.351C360.7,929.966,360.327,929.85,359.949,929.721Z" transform="translate(-346.417 -883.908)" opacity="0.1" fill="url(#linear-gradient-4)"/>
    </g>
    <g id="Group_11" data-name="Group 11" transform="translate(47.868 48.473)">
      <g id="Group_10" data-name="Group 10" transform="translate(0 0)">
        <path id="Path_11" data-name="Path 11" d="M118.218,48.473a22.731,22.731,0,0,1-6.04,15.461,22.292,22.292,0,0,1-1.863,1.807A22.758,22.758,0,0,1,95.4,71.29H82.884c-.053,0-.106,0-.159,0a24.051,24.051,0,0,0-10.078,2.261c-.312.139-.617.292-.918.448A24.245,24.245,0,0,0,58.642,95.532c0,.159,0,.315.007.474a23.614,23.614,0,0,0,.259,3.119,23.982,23.982,0,0,0,1.757,6.113q.234.532.5,1.054c.066.143.136.282.212.418.172.341.358.676.55,1.008a24.36,24.36,0,0,0,9.275,9.057.3.3,0,0,1-.05-.017c-.206-.073-.414-.149-.617-.229s-.4-.152-.6-.232c-.076-.03-.149-.063-.225-.093l-.5-.209q-.651-.279-1.293-.587c-.215-.1-.428-.2-.64-.312-.162-.08-.325-.162-.484-.249-.113-.056-.225-.113-.335-.176-.192-.1-.385-.209-.577-.315-.156-.086-.315-.176-.471-.269q-.726-.423-1.432-.878c-.169-.106-.335-.216-.5-.328l-.222-.149c-.169-.113-.335-.229-.5-.348s-.335-.239-.5-.361c-.123-.086-.245-.176-.365-.269-.375-.282-.743-.573-1.1-.868-.126-.1-.249-.2-.368-.3s-.259-.215-.385-.328a.117.117,0,0,1-.03-.023c-.176-.152-.351-.308-.524-.467q-.935-.84-1.81-1.75c-.126-.129-.252-.265-.375-.4-.043-.043-.083-.086-.123-.133-.126-.136-.255-.278-.378-.418-.215-.239-.424-.481-.633-.726-.113-.133-.225-.269-.335-.4-.3-.361-.587-.729-.869-1.1-.1-.126-.189-.252-.282-.378s-.192-.262-.285-.391l-.073-.1c-.116-.162-.225-.321-.335-.484-.07-.1-.136-.2-.2-.3-.017-.023-.033-.043-.046-.066q-.2-.308-.4-.617c-.09-.133-.172-.269-.255-.4-.123-.2-.242-.394-.358-.593a1.125,1.125,0,0,1-.07-.119c-.109-.186-.219-.371-.321-.56l-.209-.378q-.487-.89-.915-1.81c-.113-.229-.219-.461-.321-.693-.03-.073-.063-.146-.093-.219-.106-.239-.209-.477-.3-.719-.013-.03-.027-.063-.04-.093-.113-.275-.219-.55-.325-.829-.01-.023-.017-.046-.027-.07-.053-.139-.106-.278-.152-.421-.083-.232-.166-.467-.245-.7s-.156-.471-.232-.709c-.06-.189-.116-.378-.172-.567-.1-.322-.186-.643-.272-.968-.043-.162-.086-.325-.123-.491-.053-.206-.1-.411-.149-.62-.063-.262-.119-.527-.172-.792-.06-.285-.116-.574-.166-.862-.036-.206-.073-.411-.1-.62-.066-.4-.126-.809-.176-1.217-.033-.262-.063-.527-.089-.792-.026-.242-.046-.487-.066-.733-.01-.1-.017-.192-.023-.292-.017-.232-.033-.467-.043-.7a.76.76,0,0,1,0-.086c-.01-.176-.017-.351-.023-.527-.007-.156-.01-.315-.013-.474-.007-.259-.01-.52-.01-.782s0-.54.01-.809c0-.109,0-.222.01-.331.007-.212.013-.424.026-.636v-.06c.017-.278.033-.56.053-.835,0-.017,0-.036.007-.053.02-.292.046-.583.076-.872.027-.259.056-.517.086-.772q.05-.408.109-.806c.02-.126.036-.252.06-.375.026-.179.056-.358.089-.534q.084-.507.189-1c.053-.269.113-.537.172-.8s.123-.517.189-.772c.03-.123.06-.249.1-.371.04-.156.08-.308.126-.464.02-.08.043-.159.066-.235q.07-.249.149-.5c.036-.129.073-.255.116-.385.152-.491.318-.975.494-1.452.08-.215.159-.431.242-.643.05-.133.1-.265.156-.394.143-.351.288-.7.441-1.044.053-.126.109-.252.166-.375.023-.05.043-.1.066-.146.089-.2.182-.388.275-.58.106-.225.215-.444.328-.666.156-.3.315-.61.477-.908.089-.166.182-.332.278-.494.209-.375.428-.746.656-1.111.106-.176.215-.348.325-.52s.212-.328.322-.491.2-.3.3-.451q.6-.87,1.243-1.7.209-.268.428-.537c.106-.133.212-.265.325-.394.136-.166.279-.332.421-.5.169-.2.345-.394.524-.59s.355-.391.537-.58c.136-.143.269-.282.408-.421q.055-.06.109-.109.149-.159.3-.3c.093-.1.186-.186.279-.275.119-.116.239-.229.358-.341q.781-.736,1.6-1.422c.156-.129.315-.259.474-.384s.312-.252.471-.371c.056-.046.113-.089.169-.133.149-.113.3-.225.448-.335.371-.275.749-.547,1.134-.809l.328-.219c.152-.1.3-.2.461-.3l.076-.05c.172-.109.348-.219.524-.325q1.228-.761,2.523-1.412c.192-.1.388-.2.583-.288.159-.08.318-.156.481-.229.143-.07.285-.133.431-.2.534-.239,1.077-.467,1.628-.68.186-.073.368-.143.557-.209.073-.03.146-.056.219-.083.229-.083.461-.166.693-.242.272-.093.547-.182.822-.269.017-.007.033-.01.053-.017.255-.08.517-.156.776-.229.222-.063.444-.126.666-.182l.388-.1c.206-.053.414-.1.623-.149.007,0,.013,0,.02-.007q.408-.094.825-.179a.139.139,0,0,1,.036-.007c.252-.053.507-.1.762-.146.152-.03.3-.056.454-.08.4-.07.806-.129,1.213-.182.176-.023.348-.046.524-.063.206-.027.414-.05.62-.07.252-.027.5-.046.756-.066a.709.709,0,0,1,.086-.007c.278-.023.564-.04.845-.053.235-.013.474-.023.709-.03.109,0,.219-.007.328-.007.255-.007.514-.01.772-.01Z" transform="translate(-47.868 -48.473)" fill="#19bfb6"/>
      </g>
    </g>
    <g id="Group_13" data-name="Group 13" transform="translate(47.868 48.473)" opacity="0.5">
      <g id="Group_12" data-name="Group 12" transform="translate(0 0)">
        <path id="Path_12" data-name="Path 12" d="M118.215,48.473A23.714,23.714,0,0,1,98.209,59.406H82.437A32.641,32.641,0,0,0,49.761,92.081a32.2,32.2,0,0,0,.189,3.5A35.2,35.2,0,0,1,72.585,50.054c.017-.007.033-.01.053-.017a35.316,35.316,0,0,1,10.406-1.565Z" transform="translate(-47.868 -48.473)" fill="url(#linear-gradient-2)"/>
      </g>
    </g>
    <g id="Group_14" data-name="Group 14" transform="translate(47.871 71.711)" opacity="0.25">
      <path id="Path_13" data-name="Path 13" d="M47.911,393.959a23.714,23.714,0,0,1,20.006-10.933H83.69a32.642,32.642,0,0,0,32.676-32.676,32.2,32.2,0,0,0-.189-3.5,35.2,35.2,0,0,1-22.635,45.531c-.017.007-.033.01-.053.017a35.32,35.32,0,0,1-10.406,1.565Z" transform="translate(-47.911 -346.847)" fill="url(#linear-gradient-6)"/>
    </g>
    <g id="Group_17" data-name="Group 17" transform="translate(47.868 48.473)" opacity="0.5">
      <g id="Group_16" data-name="Group 16" transform="translate(0 0)">
        <g id="Group_15" data-name="Group 15">
          <path id="Path_14" data-name="Path 14" d="M103.4,48.473a26.339,26.339,0,0,1-4.767,15.461,20.655,20.655,0,0,1-1.472,1.807,18.17,18.17,0,0,1-3.8,3.2,14.918,14.918,0,0,1-7.972,2.354h-2.51c-.053,0-.106,0-.159,0-.162,0-.325,0-.484.01-.242,0-.481.013-.723.026l-.189.01a31.014,31.014,0,0,0-29.238,29.029q-.467-.855-.879-1.74c-.113-.229-.219-.461-.321-.693-.03-.073-.063-.146-.093-.219-.106-.239-.209-.477-.3-.719-.013-.03-.027-.063-.04-.093-.113-.275-.219-.55-.325-.829-.01-.023-.017-.046-.027-.07-.053-.139-.106-.278-.152-.421-.083-.232-.166-.467-.245-.7s-.156-.471-.232-.709c-.06-.189-.116-.378-.172-.567-.1-.322-.186-.643-.272-.968-.043-.162-.086-.325-.123-.491-.053-.206-.1-.411-.149-.62-.063-.262-.119-.527-.172-.792-.06-.285-.116-.574-.166-.862-.036-.206-.073-.411-.1-.62-.066-.4-.126-.809-.176-1.217-.033-.262-.063-.527-.089-.792-.026-.242-.046-.487-.066-.733-.01-.1-.017-.192-.023-.292-.017-.232-.033-.467-.043-.7a.76.76,0,0,1,0-.086c-.01-.176-.017-.351-.023-.527-.007-.156-.01-.315-.013-.474-.007-.259-.01-.52-.01-.782s0-.54.01-.809c0-.109,0-.222.01-.331.007-.212.013-.424.026-.636v-.06c.017-.278.033-.56.053-.835,0-.017,0-.036.007-.053.02-.292.046-.583.076-.872.027-.259.056-.517.086-.772q.05-.408.109-.806c.02-.126.036-.252.06-.375.026-.179.056-.358.089-.534q.084-.507.189-1c.053-.269.113-.537.172-.8s.123-.517.189-.772c.03-.123.06-.249.1-.371.04-.156.08-.308.126-.464.02-.08.043-.159.066-.235q.07-.249.149-.5c.036-.129.073-.255.116-.385.152-.491.318-.975.494-1.452.08-.215.159-.431.242-.643.05-.133.1-.265.156-.394.143-.351.288-.7.441-1.044.053-.126.109-.252.166-.375.023-.05.043-.1.066-.146.089-.2.182-.388.275-.58.106-.225.215-.444.328-.666.156-.3.315-.61.477-.908.089-.166.182-.332.278-.494.209-.375.428-.746.656-1.111.106-.176.215-.348.325-.52s.212-.328.322-.491.2-.3.3-.451q.6-.87,1.243-1.7.209-.268.428-.537c.106-.133.212-.265.325-.394.136-.166.279-.332.421-.5.169-.2.345-.394.524-.59s.355-.391.537-.58c.136-.143.269-.282.408-.421q.055-.06.109-.109.149-.159.3-.3c.093-.1.186-.186.279-.275.119-.116.239-.229.358-.341q.781-.736,1.6-1.422c.156-.129.315-.259.474-.384s.312-.252.471-.371c.056-.046.113-.089.169-.133.149-.113.3-.225.448-.335.371-.275.749-.547,1.134-.809l.328-.219c.152-.1.3-.2.461-.3l.076-.05c.172-.109.348-.219.524-.325q1.228-.761,2.523-1.412c.192-.1.388-.2.583-.288.159-.08.318-.156.481-.229.143-.07.285-.133.431-.2.534-.239,1.077-.467,1.628-.68.186-.073.368-.143.557-.209.073-.03.146-.056.219-.083.229-.083.461-.166.693-.242.272-.093.547-.182.822-.269.017-.007.033-.01.053-.017.255-.08.517-.156.776-.229.222-.063.444-.126.666-.182l.388-.1c.206-.053.414-.1.623-.149.007,0,.013,0,.02-.007q.408-.094.825-.179a.139.139,0,0,1,.036-.007c.252-.053.507-.1.762-.146.152-.03.3-.056.454-.08.4-.07.806-.129,1.213-.182.176-.023.348-.046.524-.063.206-.027.414-.05.62-.07.252-.027.5-.046.756-.066a.709.709,0,0,1,.086-.007c.278-.023.564-.04.845-.053.235-.013.474-.023.709-.03.109,0,.219-.007.328-.007.255-.007.514-.01.772-.01Z" transform="translate(-47.868 -48.473)" fill="url(#linear-gradient-7)"/>
        </g>
      </g>
    </g>
    <path id="Path_15" data-name="Path 15" d="M524.361,335.633a19.683,19.683,0,0,1-19.151,19.674h-.1a12.359,12.359,0,0,0,11.921-12.352V330.6a22.737,22.737,0,0,0,6.411-.915A19.7,19.7,0,0,1,524.361,335.633Z" transform="translate(-421.635 -259.309)" opacity="0.25" fill="url(#linear-gradient-8)"/>
  </g>
</svg>
